<svg width="20" height="20" viewBox="0 0 20 20" fill="none" xmlns="http://www.w3.org/2000/svg">
<path d="M14.1667 1.6665V3.33317M10 1.6665V3.33317M5.83334 1.6665V3.33317" stroke="#CDCDCD" stroke-linecap="round" stroke-linejoin="round"/>
<path d="M2.91666 13.3333L2.91666 7.5C2.91666 5.14298 2.91666 3.96447 3.64889 3.23223C4.38112 2.5 5.55963 2.5 7.91666 2.5L12.0833 2.5C14.4403 2.5 15.6189 2.5 16.3511 3.23223C17.0833 3.96447 17.0833 5.14298 17.0833 7.5V10C17.0833 13.9284 17.0833 15.8926 15.8629 17.1129C14.6425 18.3333 12.6784 18.3333 8.74999 18.3333H7.91666C5.55963 18.3333 4.38112 18.3333 3.64889 17.6011C2.91666 16.8689 2.91666 15.6904 2.91666 13.3333Z" stroke="#CDCDCD"/>
<path d="M6.66666 12.4997H9.99999M6.66666 8.33301L13.3333 8.33301" stroke="#CDCDCD" stroke-linecap="round"/>
<path d="M17.0833 12.083C17.0833 13.2336 16.1506 14.1663 15 14.1663C14.5839 14.1663 14.0933 14.0934 13.6887 14.2018C13.3293 14.2982 13.0485 14.5789 12.9522 14.9384C12.8438 15.343 12.9167 15.8336 12.9167 16.2497C12.9167 17.4003 11.9839 18.333 10.8333 18.333" stroke="#CDCDCD" stroke-linecap="round" stroke-linejoin="round"/>
</svg>
